<?xml version="1.0" encoding="UTF-8"?>
<svg version="1.1" xmlns="http://www.w3.org/2000/svg" width="64" height="64">
<path d="M0 0 C0.98467255 -0.0127597 1.96934509 -0.02551941 2.9838562 -0.03866577 C4.57763596 -0.04200424 4.57763596 -0.04200424 6.20361328 -0.04541016 C7.84416183 -0.05539536 7.84416183 -0.05539536 9.51785278 -0.06558228 C11.83284827 -0.07571305 14.14787299 -0.08039916 16.46289062 -0.08007812 C20.00325742 -0.08444715 23.54237372 -0.12075247 27.08251953 -0.15869141 C29.33121318 -0.16456026 31.57991276 -0.16852919 33.82861328 -0.17041016 C34.88708466 -0.18478119 35.94555603 -0.19915222 37.03610229 -0.21395874 C44.38071643 -0.16835393 44.38071643 -0.16835393 48.23144531 2.13183594 C51.30056264 5.58703526 52.39933977 7.58229701 52.43945312 12.14160156 C52.45221283 13.12627411 52.46497253 14.11094666 52.4781189 15.12545776 C52.48034454 16.1879776 52.48257019 17.25049744 52.48486328 18.34521484 C52.49484848 19.9857634 52.49484848 19.9857634 52.5050354 21.65945435 C52.51516618 23.97444984 52.51985229 26.28947455 52.51953125 28.60449219 C52.52390028 32.14485898 52.5602056 35.68397529 52.59814453 39.22412109 C52.60401339 41.47281474 52.60798232 43.72151432 52.60986328 45.97021484 C52.62423431 47.02868622 52.63860535 48.08715759 52.65341187 49.17770386 C52.60780705 56.52231799 52.60780705 56.52231799 50.30761719 60.37304688 C46.85241787 63.44216421 44.85715611 64.54094133 40.29785156 64.58105469 C39.31317902 64.59381439 38.32850647 64.6065741 37.31399536 64.61972046 C35.72021561 64.62305893 35.72021561 64.62305893 34.09423828 64.62646484 C33.00053925 64.63312164 31.90684021 64.63977844 30.77999878 64.64663696 C28.46500329 64.65676774 26.14997857 64.66145385 23.83496094 64.66113281 C20.29459414 64.66550184 16.75547784 64.70180716 13.21533203 64.73974609 C10.96663838 64.74561495 8.7179388 64.74958388 6.46923828 64.75146484 C5.41076691 64.76583588 4.35229553 64.78020691 3.26174927 64.79501343 C-4.08286487 64.74940861 -4.08286487 64.74940861 -7.93359375 62.44921875 C-11.00271108 58.99401943 -12.1014882 56.99875768 -12.14160156 52.43945312 C-12.15436127 51.45478058 -12.16712097 50.47010803 -12.18026733 49.45559692 C-12.18249298 48.39307709 -12.18471863 47.33055725 -12.18701172 46.23583984 C-12.19366852 45.14214081 -12.20032532 44.04844177 -12.20718384 42.92160034 C-12.21731461 40.60660485 -12.22200073 38.29158013 -12.22167969 35.9765625 C-12.22604871 32.4361957 -12.26235404 28.8970794 -12.30029297 25.35693359 C-12.30616183 23.10823994 -12.31013076 20.85954037 -12.31201172 18.61083984 C-12.32638275 17.55236847 -12.34075378 16.49389709 -12.3555603 15.40335083 C-12.30995549 8.05873669 -12.30995549 8.05873669 -10.00976562 4.20800781 C-6.55456631 1.13889048 -4.55930455 0.04011336 0 0 Z " fill="#925FFA" transform="translate(11.85107421875,-0.29052734375)"/>
<path d="M0 0 C7.92 0 15.84 0 24 0 C24 2.64 24 5.28 24 8 C26.64 8 29.28 8 32 8 C32 13.28 32 18.56 32 24 C29.36 24 26.72 24 24 24 C24 26.64 24 29.28 24 32 C21.36 32 18.72 32 16 32 C16 29.36 16 26.72 16 24 C18.31 24 20.62 24 23 24 C23 19.05 23 14.1 23 9 C15.74 9 8.48 9 1 9 C1 19.23 1 29.46 1 40 C-1.97 40 -4.94 40 -8 40 C-8 29.44 -8 18.88 -8 8 C-5.36 8 -2.72 8 0 8 C0 5.36 0 2.72 0 0 Z " fill="#55329A" transform="translate(20,12)"/>
<path d="M0 0 C2.31 0 4.62 0 7 0 C7 9.9 7 19.8 7 30 C4.69 30 2.38 30 0 30 C0 20.1 0 10.2 0 0 Z " fill="#140531" transform="translate(13,21)"/>
<path d="M0 0 C7.26 0 14.52 0 22 0 C22 2.31 22 4.62 22 7 C14.74 7 7.48 7 0 7 C0 4.69 0 2.38 0 0 Z " fill="#140531" transform="translate(21,13)"/>
<path d="M0 0 C2.31 0 4.62 0 7 0 C7 4.95 7 9.9 7 15 C4.69 15 2.38 15 0 15 C0 10.05 0 5.1 0 0 Z " fill="#140531" transform="translate(44,21)"/>
<path d="M0 0 C2.64 0 5.28 0 8 0 C8 2.64 8 5.28 8 8 C5.36 8 2.72 8 0 8 C0 5.36 0 2.72 0 0 Z " fill="#1C0A3D" transform="translate(36,36)"/>
<path d="M0 0 C2.64 0 5.28 0 8 0 C8 2.64 8 5.28 8 8 C5.36 8 2.72 8 0 8 C0 5.36 0 2.72 0 0 Z " fill="#180737" transform="translate(28,28)"/>
<path d="M0 0 C2.31 0 4.62 0 7 0 C7 2.31 7 4.62 7 7 C4.69 7 2.38 7 0 7 C0 4.69 0 2.38 0 0 Z " fill="#140531" transform="translate(44,44)"/>
<path d="M0 0 C1.14926266 0.95421808 2.29430541 1.91352045 3.4375 2.875 C4.07558594 3.40867188 4.71367188 3.94234375 5.37109375 4.4921875 C7 6 7 6 8 8 C5.36 8 2.72 8 0 8 C0 5.36 0 2.72 0 0 Z " fill="#26114E" transform="translate(28,44)"/>
</svg>
